<svg id="_03-高级分析" data-name="03-高级分析" xmlns="http://www.w3.org/2000/svg" xmlns:xlink="http://www.w3.org/1999/xlink" viewBox="0 0 62 62"><defs><style>.cls-1{fill:#fff;}.cls-2{fill:#00fff0;}.cls-3{mask:url(#mask);}.cls-4{fill:url(#未命名的渐变_38);}.cls-5{fill:none;stroke:#008078;stroke-miterlimit:10;stroke-width:0.5px;}</style><mask id="mask" x="13.91" y="16.26" width="35.77" height="29.37" maskUnits="userSpaceOnUse"><rect class="cls-1" x="13.91" y="16.26" width="35.77" height="15.3"/><polygon points="36.73 25.85 46.9 20.88 48.18 23.36 38.19 28.69 36.73 25.85"/></mask><linearGradient id="未命名的渐变_38" x1="16.36" y1="31" x2="39.16" y2="31" gradientUnits="userSpaceOnUse"><stop offset="0" stop-color="#0f9"/><stop offset="1" stop-color="#f90"/></linearGradient></defs><title>能效平台框架图-Ver2.8.5-高级分析</title><g id="_03-负荷分析" data-name="03-负荷分析"><g id="显示内容"><g id="极值"><path class="cls-2" d="M49.67,12.33A26.4,26.4,0,1,0,57.4,31,26.33,26.33,0,0,0,49.67,12.33ZM46.54,46.59A22,22,0,1,1,53,31.07,21.89,21.89,0,0,1,46.54,46.59Z"/><g class="cls-3"><path class="cls-4" d="M31,16.36A14.64,14.64,0,1,0,45.64,31,14.64,14.64,0,0,0,31,16.36Zm-1.8,25.5A10.86,10.86,0,1,1,40.06,31,10.86,10.86,0,0,1,29.2,41.86Z"/></g><circle class="cls-2" cx="31" cy="31.07" r="0.44"/><circle class="cls-5" cx="31" cy="31" r="30"/><path class="cls-2" d="M46.48,21.72L34.31,27.83a4.58,4.58,0,0,0-7.9,4l-1.92,1,1.28,2.37,1.88-1.08a4.58,4.58,0,0,0,7.66-4.41l6.88-4,2.38-1.37L47.18,23ZM31,33.5A2.5,2.5,0,1,1,33.5,31,2.5,2.5,0,0,1,31,33.5Z"/></g></g></g></svg>